HIERARCHY
ROOT hip
{
  OFFSET 0 0 0
  CHANNELS 6 Xposition Yposition Zposition Zrotation Yrotation Xrotation
  JOINT abdomen
  {
    OFFSET 0 20.6881 -0.73152
    CHANNELS 3 Zrotation Xrotation Yrotation
    JOINT chest
    {
      OFFSET 0 11.7043 -0.48768
      CHANNELS 3 Zrotation Xrotation Yrotation
      JOINT neck
      {
        OFFSET 0 22.1894 -2.19456
        CHANNELS 3 Zrotation Xrotation Yrotation
        JOINT head
        {
          OFFSET -0.24384 7.07133 1.2192
          CHANNELS 3 Zrotation Xrotation Yrotation
          JOINT leftEye
          {
            OFFSET 4.14528 8.04674 8.04672
            CHANNELS 3 Zrotation Xrotation Yrotation
            End Site
            {
              OFFSET 1 0 0
            }
          }
          JOINT rightEye
          {
            OFFSET -3.6576 8.04674 8.04672
            CHANNELS 3 Zrotation Xrotation Yrotation
            End Site
            {
              OFFSET 1 0 0
            }
          }
        }
      }
      JOINT rCollar
      {
        OFFSET -2.68224 19.2634 -4.8768
        CHANNELS 3 Zrotation Xrotation Yrotation
        JOINT rShldr
        {
          OFFSET -8.77824 -1.95073 1.46304
          CHANNELS 3 Zrotation Xrotation Yrotation
          JOINT rForeArm
          {
            OFFSET -28.1742 -1.7115 0.48768
            CHANNELS 3 Zrotation Xrotation Yrotation
            JOINT rHand
            {
              OFFSET -22.5879 0.773209 7.07136
              CHANNELS 3 Zrotation Xrotation Yrotation
              JOINT rThumb1
              {
                OFFSET -1.2192 -0.487915 3.41376
                CHANNELS 3 Zrotation Xrotation Yrotation
                JOINT rThumb2
                {
                  OFFSET -3.37035 -0.52449 3.41376
                  CHANNELS 3 Zrotation Xrotation Yrotation
                  End Site
                  {
                    OFFSET -1.78271 -1.18214 1.43049
                  }
                }
              }
              JOINT rIndex1
              {
                OFFSET -7.75947 0.938293 5.60832
                CHANNELS 3 Zrotation Xrotation Yrotation
                JOINT rIndex2
                {
                  OFFSET -2.54057 -0.884171 1.56538
                  CHANNELS 3 Zrotation Xrotation Yrotation
                  End Site
                  {
                    OFFSET -1.62519 -0.234802 1.16502
                  }
                }
              }
              JOINT rMid1
              {
                OFFSET -8.24714 1.18213 3.41376
                CHANNELS 3 Zrotation Xrotation Yrotation
                JOINT rMid2
                {
                  OFFSET -3.10165 -0.590103 1.0647
                  CHANNELS 3 Zrotation Xrotation Yrotation
                  End Site
                  {
                    OFFSET -2.48547 -0.328903 0.83742
                  }
                }
              }
              JOINT rRing1
              {
                OFFSET -8.82822 0.546677 1.51678
                CHANNELS 3 Zrotation Xrotation Yrotation
                JOINT rRing2
                {
                  OFFSET -2.60934 -0.819778 -0.0198488
                  CHANNELS 3 Zrotation Xrotation Yrotation
                  End Site
                  {
                    OFFSET -2.33842 -0.294052 0.168128
                  }
                }
              }
              JOINT rPinky1
              {
                OFFSET -8.27202 -0.0477905 -0.4584
                CHANNELS 3 Zrotation Xrotation Yrotation
                JOINT rPinky2
                {
                  OFFSET -1.82734 -0.647385 -0.700984
                  CHANNELS 3 Zrotation Xrotation Yrotation
                  End Site
                  {
                    OFFSET -1.69225 -0.51767 -0.607171
                  }
                }
              }
            }
          }
        }
      }
      JOINT lCollar
      {
        OFFSET 2.68224 19.2634 -4.8768
        CHANNELS 3 Zrotation Xrotation Yrotation
        JOINT lShldr
        {
          OFFSET 8.77824 -1.95073 1.46304
          CHANNELS 3 Zrotation Xrotation Yrotation
          JOINT lForeArm
          {
            OFFSET 28.1742 -1.7115 0.48768
            CHANNELS 3 Zrotation Xrotation Yrotation
            JOINT lHand
            {
              OFFSET 22.5879 0.773209 7.07136
              CHANNELS 3 Zrotation Xrotation Yrotation
              JOINT lThumb1
              {
                OFFSET 1.2192 -0.487915 3.41376
                CHANNELS 3 Zrotation Xrotation Yrotation
                JOINT lThumb2
                {
                  OFFSET 3.37035 -0.52449 3.41376
                  CHANNELS 3 Zrotation Xrotation Yrotation
                  End Site
                  {
                    OFFSET 1.78271 -1.18214 1.43049
                  }
                }
              }
              JOINT lIndex1
              {
                OFFSET 7.75947 0.938293 5.60832
                CHANNELS 3 Zrotation Xrotation Yrotation
                JOINT lIndex2
                {
                  OFFSET 2.54057 -0.884171 1.56538
                  CHANNELS 3 Zrotation Xrotation Yrotation
                  End Site
                  {
                    OFFSET 1.62519 -0.234802 1.16502
                  }
                }
              }
              JOINT lMid1
              {
                OFFSET 8.24714 1.18213 3.41376
                CHANNELS 3 Zrotation Xrotation Yrotation
                JOINT lMid2
                {
                  OFFSET 3.10165 -0.590103 1.0647
                  CHANNELS 3 Zrotation Xrotation Yrotation
                  End Site
                  {
                    OFFSET 2.48547 -0.328903 0.83742
                  }
                }
              }
              JOINT lRing1
              {
                OFFSET 8.82822 0.546677 1.51678
                CHANNELS 3 Zrotation Xrotation Yrotation
                JOINT lRing2
                {
                  OFFSET 2.60934 -0.819778 -0.0198488
                  CHANNELS 3 Zrotation Xrotation Yrotation
                  End Site
                  {
                    OFFSET 2.33842 -0.294052 0.168128
                  }
                }
              }
              JOINT lPinky1
              {
                OFFSET 8.27202 -0.0477905 -0.4584
                CHANNELS 3 Zrotation Xrotation Yrotation
                JOINT lPinky2
                {
                  OFFSET 1.82734 -0.647385 -0.700984
                  CHANNELS 3 Zrotation Xrotation Yrotation
                  End Site
                  {
                    OFFSET 1.69225 -0.51767 -0.607171
                  }
                }
              }
            }
          }
        }
      }
    }
  }
  JOINT rButtock
  {
    OFFSET -8.77824 4.35084 1.2192
    CHANNELS 3 Zrotation Xrotation Yrotation
    JOINT rThigh
    {
      OFFSET 0 -1.70687 -2.19456
      CHANNELS 3 Zrotation Xrotation Yrotation
      JOINT rShin
      {
        OFFSET 0 -36.8199 0.73152
        CHANNELS 3 Zrotation Xrotation Yrotation
        JOINT rFoot
        {
          OFFSET 0.73152 -45.1104 -5.12064
          CHANNELS 3 Zrotation Xrotation Yrotation
          End Site
          {
            OFFSET -1.1221 -3.69964 12.103
          }
        }
      }
    }
  }
  JOINT lButtock
  {
    OFFSET 8.77824 4.35084 1.2192
    CHANNELS 3 Zrotation Xrotation Yrotation
    JOINT lThigh
    {
      OFFSET 0 -1.70687 -2.19456
      CHANNELS 3 Zrotation Xrotation Yrotation
      JOINT lShin
      {
        OFFSET 0 -36.8199 0.73152
        CHANNELS 3 Zrotation Xrotation Yrotation
        JOINT lFoot
        {
          OFFSET -0.73152 -45.1104 -5.12064
          CHANNELS 3 Zrotation Xrotation Yrotation
          End Site
          {
            OFFSET 1.1221 -3.69964 12.103
          }
        }
      }
    }
  }
}
MOTION
Frames:	4
Frame Time:	0.03333
0.5217000246047974 76.19080352783203 2.1552999019622803 0.14509999542497098 20.29430016875267 -9.539800062775612 -17.99319952726364 39.49959933757782 16.990100294351578 1.6588700003921986 -12.163800448179245 3.450309857726097 -7.193820029497147 16.93240061402321 -11.3359996676445 16.829000115394592 -38.599699437618256 -17.423100024461746 0.0 0.0 0.0 0.0 0.0 0.0 0.0 0.0 0.0 25.717999041080475 -25.0326007604599 71.33860051631927 -8.495709970593452 -3.2760899886488914 15.009200423955917 -1.6833600774407387 34.16679918766022 5.473869927227497 -2.2356516637955792e-09 5.427978067018557e-09 5.0174264742963715e-09 -3.725659780684509e-09 9.919745025399607e-09 8.713669785720413e-09 -2.2356516637955792e-09 5.427978067018557e-09 5.0174264742963715e-09 7.7309102565050125 5.474880114197731 0.41731400415301323 -2.2356516637955792e-09 5.427978067018557e-09 5.0174264742963715e-09 2.905540131032467 0.9651830233633518 0.102901995414868 -2.2356516637955792e-09 5.427978067018557e-09 5.0174264742963715e-09 10.27859978377819 0.7318009994924068 0.025912300043273717 -2.2356516637955792e-09 5.427978067018557e-09 5.0174264742963715e-09 2.221670038998127 -0.733487019315362 -0.2089200052432716 0.0 0.0 0.0 -112.66800284385681 56.62820219993591 52.679797410964966 27.63089954853058 -42.042301297187805 -87.66020178794861 5.238000154495239 -52.57109820842743 10.581600219011307 2.126938625224284e-09 2.808633325912524e-09 4.169464773440268e-10 3.651479119071155e-09 4.706635081674904e-09 7.929656931082718e-10 2.126938625224284e-09 2.808633325912524e-09 4.169464773440268e-10 -7.7309102565050125 5.474880114197731 -0.41731400415301323 2.126938625224284e-09 2.808633325912524e-09 4.169464773440268e-10 -2.905540131032467 0.9651830233633518 -0.102901995414868 2.126938625224284e-09 2.808633325912524e-09 4.169464773440268e-10 -10.27859978377819 0.7318009994924068 -0.025912300043273717 2.126938625224284e-09 2.808633325912524e-09 4.169464773440268e-10 -2.221670038998127 -0.733487019315362 0.2089200052432716 0.0 0.0 0.0 -123.26000332832336 -69.63200211524963 -126.1299991607666 -175.9469997882843 69.71390068531036 176.70600056648254 -3.669700138270855 -2.1758800372481346 -13.949899524450302 0.0 0.0 0.0 3.571550063788891 -12.50699982047081 3.229759857058525 0.23069899762049317 52.92040228843689 -3.160320147871971 10.210000276565552 -20.168500542640686 20.966500639915466
1.172700047492981 76.78720092773438 4.261600017547607 0.7845000363886356 20.49250066280365 -11.409700065851212 -16.876200288534164 42.129298746585846 16.32070004940033 1.3895000237971544 -12.450500428676605 3.2809099182486534 -7.021109908819199 16.694400161504745 -11.246299892663956 15.801799893379211 -38.155300319194794 -17.599400281906128 0.0 0.0 0.0 0.0 0.0 0.0 0.0 0.0 0.0 24.685201048851013 -25.223099291324615 71.91190123558044 -8.48917007446289 -3.2724998518824577 14.997299462556839 -1.6912400722503662 34.2331999540329 5.487690009176731 -1.4196643860486802e-09 6.113509698479902e-09 4.651639073927072e-09 -2.325180048501352e-09 1.1024781088053714e-08 8.060112577368272e-09 -1.4196643860486802e-09 6.113509698479902e-09 4.651639073927072e-09 7.7309102565050125 5.474880114197731 0.41731400415301323 -1.4196643860486802e-09 6.113509698479902e-09 4.651639073927072e-09 2.905540131032467 0.9651830233633518 0.102901995414868 -1.4196643860486802e-09 6.113509698479902e-09 4.651639073927072e-09 10.27859978377819 0.7318009994924068 0.025912300043273717 -1.4196643860486802e-09 6.113509698479902e-09 4.651639073927072e-09 2.221670038998127 -0.733487019315362 -0.2089200052432716 0.0 0.0 0.0 -112.93800473213196 57.16729938983917 53.82829785346985 27.540699541568756 -42.36189991235733 -88.27140212059021 5.298829972743988 -52.77090132236481 10.65849982202053 2.446682856316329e-09 3.3458036341471598e-09 5.537970082514221e-10 4.196323288852e-09 5.586571205640212e-09 1.0436451702844352e-09 2.446682856316329e-09 3.3458036341471598e-09 5.537970082514221e-10 -7.7309102565050125 5.474880114197731 -0.41731400415301323 2.446682856316329e-09 3.3458036341471598e-09 5.537970082514221e-10 -2.905540131032467 0.9651830233633518 -0.102901995414868 2.446682856316329e-09 3.3458036341471598e-09 5.537970082514221e-10 -10.27859978377819 0.7318009994924068 -0.025912300043273717 2.446682856316329e-09 3.3458036341471598e-09 5.537970082514221e-10 -2.221670038998127 -0.733487019315362 0.2089200052432716 0.0 0.0 0.0 -136.18599772453308 -65.06889939308167 -136.98999524116516 -175.86900115013123 70.14920175075531 176.58599853515625 -3.1419899314641953 -2.7551399543881416 -12.357399612665176 0.0 0.0 0.0 3.6493998393416405 -7.44871973991394 3.2131700590252876 0.13276200159452856 50.72490155696869 -3.251830078661442 10.381899699568748 -19.934200197458267 21.35999947786331
1.8308000564575195 77.1969985961914 6.530400037765503 1.539400052279234 21.298999339342117 -13.236199915409088 -15.47459989786148 44.34319943189621 15.323599576950073 1.1999499890953302 -12.635599672794342 3.0946600064635277 -6.839980334043503 16.4834001660347 -11.334000080823898 14.368600398302078 -37.53690093755722 -18.281400203704834 0.0 0.0 0.0 0.0 0.0 0.0 0.0 0.0 0.0 23.076500594615936 -25.539801120758057 71.65040194988251 -8.463329672813416 -3.258359916508198 14.950000047683716 -1.652739979326725 33.897199630737305 5.418680123984814 4.136211373406695e-09 6.814389053033665e-09 -1.887769940367434e-09 7.089369091772824e-09 1.1347083272994496e-08 -3.370104195710155e-09 4.136211373406695e-09 6.814389053033665e-09 -1.887769940367434e-09 7.7309102565050125 5.474880114197731 0.41731400415301323 4.136211373406695e-09 6.814389053033665e-09 -1.887769940367434e-09 2.905540131032467 0.9651830233633518 0.102901995414868 4.136211373406695e-09 6.814389053033665e-09 -1.887769940367434e-09 10.27859978377819 0.7318009994924068 0.025912300043273717 4.136211373406695e-09 6.814389053033665e-09 -1.887769940367434e-09 2.221670038998127 -0.733487019315362 -0.2089200052432716 0.0 0.0 0.0 -113.2449996471405 58.05880129337311 54.932901263237 27.47480034828186 -42.59219974279404 -88.70660126209259 5.521870069205761 -53.47289979457855 10.937399938702583 2.1755397483502747e-09 2.5784174795262516e-09 8.773781701165717e-10 3.702638196045882e-09 4.200160219625104e-09 1.6217427400988527e-09 2.1755397483502747e-09 2.5784174795262516e-09 8.773781701165717e-10 -7.7309102565050125 5.474880114197731 -0.41731400415301323 2.1755397483502747e-09 2.5784174795262516e-09 8.773781701165717e-10 -2.905540131032467 0.9651830233633518 -0.102901995414868 2.1755397483502747e-09 2.5784174795262516e-09 8.773781701165717e-10 -10.27859978377819 0.7318009994924068 -0.025912300043273717 2.1755397483502747e-09 2.5784174795262516e-09 8.773781701165717e-10 -2.221670038998127 -0.733487019315362 0.2089200052432716 0.0 0.0 0.0 -144.93199467658997 -58.98140072822571 -143.50600361824036 -176.02499842643738 68.91070246696472 176.68799757957458 -2.5913399644196033 -3.0503398552536964 -10.72550006210804 0.0 0.0 0.0 3.3184199407696724 -3.0666399747133255 2.615740019828081 0.09137080167420208 49.016098380088806 -3.276580162346363 10.60119979083538 -19.452499598264694 21.997199803590775
2.3927000761032104 77.18589782714844 8.769099950790405 2.1265999786555767 22.81020015478134 -14.584900438785553 -13.49409967660904 45.56849956512451 13.762399703264236 1.4563100785017014 -12.51380056142807 2.9221000894904137 -6.861159726977348 16.371800154447556 -11.43640011548996 13.32659974694252 -37.05739974975586 -18.85110005736351 0.0 0.0 0.0 0.0 0.0 0.0 0.0 0.0 6.394884621840902e-13 20.53629979491234 -25.64910113811493 70.65940082073212 -8.546390309929848 -3.3039001375436783 15.10210007429123 -1.579580046236515 33.25180113315582 5.287100002169609 5.252758228380117e-09 6.3795368987484835e-09 -3.526139380483073e-09 8.973302101367153e-09 1.0385292625869624e-08 -6.226059667824302e-09 5.252758228380117e-09 6.3795368987484835e-09 -3.526139380483073e-09 7.7309102565050125 5.474880114197731 0.41731400415301323 5.252758228380117e-09 6.3795368987484835e-09 -3.526139380483073e-09 2.905540131032467 0.9651830233633518 0.102901995414868 5.252758228380117e-09 6.3795368987484835e-09 -3.526139380483073e-09 10.27859978377819 0.7318009994924068 0.025912300043273717 5.252758228380117e-09 6.3795368987484835e-09 -3.526139380483073e-09 2.221670038998127 -0.733487019315362 -0.2089200052432716 0.0 0.0 6.394884621840902e-13 -113.35100054740906 58.89690041542053 55.38290083408356 27.461601197719574 -42.634801268577576 -88.7898999452591 5.651400312781334 -53.86489927768707 11.097800061106682 1.454196763006621e-09 1.5296564015443437e-09 7.616307584612514e-10 2.462030579408747e-09 2.4351720639970154e-09 1.3979217783344211e-09 1.454196763006621e-09 1.5296564015443437e-09 7.616307584612514e-10 -7.7309102565050125 5.474880114197731 -0.41731400415301323 1.454196763006621e-09 1.5296564015443437e-09 7.616307584612514e-10 -2.905540131032467 0.9651830233633518 -0.102901995414868 1.454196763006621e-09 1.5296564015443437e-09 7.616307584612514e-10 -10.27859978377819 0.7318009994924068 -0.025912300043273717 1.454196763006621e-09 1.5296564015443437e-09 7.616307584612514e-10 -2.221670038998127 -0.733487019315362 0.2089200052432716 0.0 0.0 0.0 -151.01400017738342 -51.320502161979675 -148.32599759101868 -176.39500379562378 65.45589923858643 177.020001411438 -1.9028199277818203 -3.564480096101761 -8.592449873685837 0.0 0.0 0.0 3.27434990555048 0.2142660040408373 1.5501200035214424 0.0790888984920457 48.12639892101288 -3.251440152525902 11.084700152277946 -19.076900482177734 23.11449944972992
